<svg width="24" height="24" viewBox="0 0 24 24" fill="none" xmlns="http://www.w3.org/2000/svg">
<g clip-path="url(#clip0_28_1885)">
<path d="M22.8002 16.8021V7.19687C22.7998 6.88249 22.7171 6.57369 22.5603 6.30121C22.4035 6.02873 22.178 5.80208 21.9064 5.6438L13.3564 0.667929C12.9444 0.428105 12.4763 0.301758 11.9996 0.301758C11.523 0.301758 11.0548 0.428105 10.6429 0.667929L2.09401 5.6438C1.82237 5.80208 1.59693 6.02873 1.44011 6.30121C1.28329 6.57369 1.20058 6.88249 1.2002 7.19687V16.8021C1.20038 17.1167 1.28301 17.4257 1.43983 17.6984C1.59666 17.9711 1.82221 18.1979 2.09401 18.3563L10.644 23.3322C11.0561 23.5717 11.5242 23.6978 12.0008 23.6978C12.4774 23.6978 12.9455 23.5717 13.3575 23.3322L21.9075 18.3563C22.1791 18.1978 22.4044 17.9709 22.561 17.6982C22.7177 17.4255 22.8001 17.1166 22.8002 16.8021Z" stroke="black" stroke-linecap="round" stroke-linejoin="round"/>
<path d="M1.48145 6.26196L12.0002 12.4495L22.5189 6.26196" stroke="black" stroke-linecap="round" stroke-linejoin="round"/>
<path d="M12 23.6995V12.4495" stroke="black" stroke-linecap="round" stroke-linejoin="round"/>
<path d="M12.0004 7.05C12.746 7.05 13.3504 6.64706 13.3504 6.15C13.3504 5.65294 12.746 5.25 12.0004 5.25C11.2548 5.25 10.6504 5.65294 10.6504 6.15C10.6504 6.64706 11.2548 7.05 12.0004 7.05Z" fill="black"/>
<path d="M9.30039 15.5999C9.79745 15.5999 10.2004 14.9955 10.2004 14.2499C10.2004 13.5043 9.79745 12.8999 9.30039 12.8999C8.80333 12.8999 8.40039 13.5043 8.40039 14.2499C8.40039 14.9955 8.80333 15.5999 9.30039 15.5999Z" fill="black"/>
<path d="M3.9 17.4C4.39706 17.4 4.8 16.7955 4.8 16.05C4.8 15.3044 4.39706 14.7 3.9 14.7C3.40294 14.7 3 15.3044 3 16.05C3 16.7955 3.40294 17.4 3.9 17.4Z" fill="black"/>
<path d="M14.6998 15.5999C15.1969 15.5999 15.5998 14.9955 15.5998 14.2499C15.5998 13.5043 15.1969 12.8999 14.6998 12.8999C14.2027 12.8999 13.7998 13.5043 13.7998 14.2499C13.7998 14.9955 14.2027 15.5999 14.6998 15.5999Z" fill="black"/>
<path d="M20.1002 12.45C20.5973 12.45 21.0002 11.8456 21.0002 11.1C21.0002 10.3544 20.5973 9.75 20.1002 9.75C19.6031 9.75 19.2002 10.3544 19.2002 11.1C19.2002 11.8456 19.6031 12.45 20.1002 12.45Z" fill="black"/>
<path d="M14.6998 20.5501C15.1969 20.5501 15.5998 19.9457 15.5998 19.2001C15.5998 18.4545 15.1969 17.8501 14.6998 17.8501C14.2027 17.8501 13.7998 18.4545 13.7998 19.2001C13.7998 19.9457 14.2027 20.5501 14.6998 20.5501Z" fill="black"/>
<path d="M20.1002 17.4C20.5973 17.4 21.0002 16.7955 21.0002 16.05C21.0002 15.3044 20.5973 14.7 20.1002 14.7C19.6031 14.7 19.2002 15.3044 19.2002 16.05C19.2002 16.7955 19.6031 17.4 20.1002 17.4Z" fill="black"/>
</g>
<defs>
<clipPath id="clip0_28_1885">
<rect width="24" height="24" fill="white"/>
</clipPath>
</defs>
</svg>
